<svg id="Layer_1" data-name="Layer 1" xmlns="http://www.w3.org/2000/svg" viewBox="0 0 72 72.01">
  <defs>
    <style>
      .cls-1 {
        fill: #da2d2d;
      }

      .cls-2 {
        fill: #ffc54f;
      }
    </style>
  </defs>
  <title>Untitled-3</title>
  <path class="cls-1" d="M165,117.25l-1-.42a35.75,35.75,0,0,0-6.75-2.1l-.47-.09c-.39-.07-.79-.14-1.18-.19l-1.18-.16c-.22,0-.44-.06-.66-.08l-.57-.06c-.74-.06-1.47-.11-2.2-.14h-2c-.73,0-1.46.08-2.2.14l-.57.06c-.22,0-.44,0-.66.08l-1.18.16c-.39,0-.79.12-1.18.19l-.47.09a35.75,35.75,0,0,0-6.75,2.1l-1,.42a36,36,0,0,0,0,65.5l1,.42a35.38,35.38,0,0,0,7.61,2.26h0c.23,0,.47.08.71.12l.46.07c.45.06.89.12,1.33.16q.3,0,.6.06l1,.09c.41,0,.83,0,1.24.06h1.25l1,0c.87,0,1.75-.1,2.64-.19l.16,0,1.61-.21q.44-.06.87-.15a35.12,35.12,0,0,0,7.5-2.24l1-.42a36,36,0,0,0,0-65.5Zm-1,59.28a29.5,29.5,0,0,1-11.27,3.33c-.83.08-1.66.12-2.51.13H150a30,30,0,1,1,14-3.47Z" transform="translate(-114 -114)"/>
  <path class="cls-2" d="M163.15,116.48a36.15,36.15,0,0,0-6.81-1.92,2.72,2.72,0,0,0-.47-.08c-.39-.06-.79-.12-1.18-.16l-1.19-.13a4.91,4.91,0,0,0-.66-.06c-.19,0-.38,0-.57,0-.74,0-1.47-.07-2.2-.08h-1l-1,0c-.73,0-1.46.11-2.2.19-.19,0-.38,0-.57.08a4.87,4.87,0,0,0-.65.1l-1.18.19c-.39.06-.79.14-1.17.22a2.83,2.83,0,0,0-.47.1,35.47,35.47,0,0,0-6.7,2.27l-.94.44,1.11,6.2a30,30,0,0,1,28-.72l.8-6.24Zm1.53,59.68a29.48,29.48,0,0,1-11.19,3.62,18,18,0,0,1-2.22.2H151a.82.82,0,0,1-.22,0,29.79,29.79,0,0,1-14.09-3.11l-.8,6.24,1,.4a35.27,35.27,0,0,0,7.67,2.06h0c.23,0,.47.07.71.1a3.62,3.62,0,0,0,.46.06c.46,0,.9.1,1.34.13.2,0,.4,0,.6,0l1,.07c.41,0,.83,0,1.24,0l1.25,0,1,0c.87-.06,1.75-.15,2.64-.26l.16,0c.52-.08,1.06-.16,1.6-.26.29,0,.58-.1.87-.17a35,35,0,0,0,7.44-2.43l.94-.44Z" transform="translate(-114 -114)"/>
</svg>
